# xmcd
#
# Track frame offsets:
#  150
#  14944
#  31881
#  46931
#  59077
#  77245
#  90636
#  108346
#  123921
#  141171
#  158657
#  176764
#
# Disc length: 2590 seconds
#
# Revision: 0
# Processed by: cddbd v1.4PL0 Copyright (c) Steve Scherf et al.
# Submitted via: AltoMP3_Maker 3.0
#
DISCID=a10a1c0c
DTITLE=Judy Boucher - Tears On My Pillow
DYEAR=1900
DGENRE=
TTITLE0=Tears On My Pillow
TTITLE1=She' Got You
TTITLE2=Loving Arms
TTITLE3=Am I That Easy To Forget
TTITLE4=I'm Gonna Stay
TTITLE5=There Are More Questions Than Answers 
TTITLE6=I Fall To Pieces
TTITLE7=Some Broken Hearts Never Mend
TTITLE8=She'll Have To Go
TTITLE9=Make The World Go Away
TTITLE10=Sweet Dreams
TTITLE11=Beneath Still Waters
EXTD=
EXTT0=
EXTT1=
EXTT2=
EXTT3=
EXTT4=
EXTT5=
EXTT6=
EXTT7=
EXTT8=
EXTT9=
EXTT10=
EXTT11=
PLAYORDER=
